<mxfile modified="2020-03-18T08:31:48.165Z" host="app.diagrams.net" agent="Mozilla/5.0 (Macintosh; Intel Mac OS X 10_15_3) AppleWebKit/537.36 (KHTML, like Gecko) Chrome/80.0.3987.132 Safari/537.36" etag="-_OnA-qWLx0bslwySkGS" version="12.8.6" type="github">
  <diagram id="M95wfp1Q9Uw5M2g8LMAI" name="第1頁">
    <mxGraphModel dx="1426" dy="745" grid="1" gridSize="10" guides="1" tooltips="1" connect="1" arrows="1" fold="1" page="1" pageScale="1" pageWidth="827" pageHeight="800" math="0" shadow="0">
      <root>
        <mxCell id="0" />
        <mxCell id="1" parent="0" />
        <mxCell id="uwWNamnaWRUTzGGO2uTA-1" value="&lt;b&gt;過期清單&lt;/b&gt;&lt;br&gt;&lt;ol&gt;&lt;li style=&quot;text-align: left&quot;&gt;&lt;span style=&quot;font-size: 13px&quot;&gt;可看到所有已經&lt;/span&gt;&lt;font style=&quot;font-size: 20px&quot; color=&quot;#ff3333&quot;&gt;Delay&lt;/font&gt;&lt;span style=&quot;font-size: 13px&quot;&gt;的單子&lt;/span&gt;&lt;/li&gt;&lt;li style=&quot;text-align: left&quot;&gt;&lt;span style=&quot;font-size: 13px&quot;&gt;每日&lt;/span&gt;&lt;font style=&quot;font-size: 20px&quot;&gt;早會&lt;/font&gt;&lt;span style=&quot;font-size: 13px&quot;&gt;或&lt;/span&gt;&lt;font style=&quot;font-size: 20px&quot;&gt;上班時&lt;/font&gt;&lt;font color=&quot;#ff3333&quot; style=&quot;font-size: 13px&quot;&gt;&lt;b&gt;應討論為何會有Delay的單子，以及如何處理&lt;/b&gt;&lt;/font&gt;&lt;/li&gt;&lt;li style=&quot;text-align: left&quot;&gt;&lt;span style=&quot;font-size: 13px&quot;&gt;可透過&lt;b style=&quot;font-size: 12px&quot;&gt;&lt;font color=&quot;#ff3333&quot; style=&quot;font-size: 20px&quot;&gt;Last Comment&lt;/font&gt;&lt;/b&gt;欄位確認該單目前最後狀況&lt;/span&gt;&lt;/li&gt;&lt;/ol&gt;" style="rounded=0;whiteSpace=wrap;html=1;fillColor=#f8cecc;strokeColor=#b85450;" parent="1" vertex="1">
          <mxGeometry x="23" y="70" width="500" height="110" as="geometry" />
        </mxCell>
        <mxCell id="uwWNamnaWRUTzGGO2uTA-2" value="ECR Version 清單與預計發佈日&lt;br&gt;&lt;div style=&quot;text-align: left&quot;&gt;&lt;ol&gt;&lt;li&gt;可看到預計發佈的版本及狀態進度條&lt;/li&gt;&lt;/ol&gt;&lt;/div&gt;" style="rounded=0;whiteSpace=wrap;html=1;fillColor=#d5e8d4;strokeColor=#82b366;" parent="1" vertex="1">
          <mxGeometry x="540" y="190" width="263" height="100" as="geometry" />
        </mxCell>
        <mxCell id="uwWNamnaWRUTzGGO2uTA-4" value="Jira單子分類圖&lt;br&gt;&lt;div style=&quot;text-align: left&quot;&gt;&lt;ol&gt;&lt;li&gt;可看到所有單子的分類數量&lt;/li&gt;&lt;li&gt;應優先處理Bug單，並持續消化功能單&lt;/li&gt;&lt;/ol&gt;&lt;/div&gt;" style="rounded=0;whiteSpace=wrap;html=1;fillColor=#dae8fc;strokeColor=#6c8ebf;" parent="1" vertex="1">
          <mxGeometry x="540" y="310" width="263" height="110" as="geometry" />
        </mxCell>
        <mxCell id="uwWNamnaWRUTzGGO2uTA-5" value="&lt;b&gt;過期單 元餅圖&lt;/b&gt;&lt;br&gt;&lt;ol&gt;&lt;li style=&quot;text-align: left&quot;&gt;&lt;span style=&quot;font-size: 13px&quot;&gt;已經&lt;/span&gt;&lt;font color=&quot;#ff3333&quot; style=&quot;font-size: 20px&quot;&gt;Delay&lt;/font&gt;&lt;span style=&quot;font-size: 13px&quot;&gt;的單子By人呈現&lt;/span&gt;&lt;/li&gt;&lt;/ol&gt;" style="rounded=0;whiteSpace=wrap;html=1;fillColor=#f8cecc;strokeColor=#b85450;" parent="1" vertex="1">
          <mxGeometry x="540" y="70" width="263" height="110" as="geometry" />
        </mxCell>
        <mxCell id="uwWNamnaWRUTzGGO2uTA-6" value="&lt;b&gt;7天內工作清單&lt;/b&gt;&lt;br&gt;&lt;ol&gt;&lt;li style=&quot;text-align: left&quot;&gt;&lt;span style=&quot;font-size: 13px&quot;&gt;可看到 7 天內，應該&lt;/span&gt;&lt;font style=&quot;font-size: 20px&quot; color=&quot;#ff3333&quot;&gt;要完成的單子&lt;/font&gt;&lt;span style=&quot;font-size: 13px&quot;&gt;單子&lt;/span&gt;&lt;/li&gt;&lt;li style=&quot;text-align: left&quot;&gt;雖未到預計完成日，但&lt;b&gt;&lt;font color=&quot;#ff3333&quot;&gt;&lt;span style=&quot;font-size: 13px&quot;&gt;每人要知道有哪些是&lt;/span&gt;&lt;font style=&quot;font-size: 20px&quot;&gt;自己應注意&lt;/font&gt;&lt;span style=&quot;font-size: 13px&quot;&gt;的單子&lt;/span&gt;&lt;/font&gt;&lt;/b&gt;&lt;/li&gt;&lt;/ol&gt;" style="rounded=0;whiteSpace=wrap;html=1;fillColor=#d5e8d4;strokeColor=#82b366;" parent="1" vertex="1">
          <mxGeometry x="23" y="190" width="500" height="100" as="geometry" />
        </mxCell>
        <mxCell id="uwWNamnaWRUTzGGO2uTA-7" value="&lt;b&gt;Pending 清單&lt;/b&gt;&lt;br&gt;&lt;ol&gt;&lt;li style=&quot;text-align: left&quot;&gt;&lt;span style=&quot;font-size: 13px&quot;&gt;可看到&lt;/span&gt;&lt;font style=&quot;font-size: 20px&quot; color=&quot;#ff3333&quot;&gt;尚未開始或Pending的&lt;/font&gt;&lt;span style=&quot;font-size: 13px&quot;&gt;單子&lt;/span&gt;&lt;/li&gt;&lt;li style=&quot;text-align: left&quot;&gt;&lt;b&gt;&lt;font color=&quot;#ff3333&quot;&gt;&lt;font style=&quot;font-size: 20px&quot;&gt;TL&lt;/font&gt;&lt;span style=&quot;font-size: 13px&quot;&gt;應隨時確認這些單子是否可排入實作&lt;/span&gt;&lt;/font&gt;&lt;/b&gt;&lt;/li&gt;&lt;li style=&quot;text-align: left&quot;&gt;&lt;b&gt;&lt;font color=&quot;#000000&quot; style=&quot;font-size: 13px&quot;&gt;Last Comments &lt;/font&gt;&lt;font color=&quot;#ff0000&quot; style=&quot;font-size: 16px&quot;&gt;需說明為何Pending&lt;/font&gt;&lt;/b&gt;&lt;/li&gt;&lt;/ol&gt;" style="rounded=0;whiteSpace=wrap;html=1;fillColor=#f5f5f5;strokeColor=#666666;fontColor=#333333;" parent="1" vertex="1">
          <mxGeometry x="23" y="310" width="500" height="110" as="geometry" />
        </mxCell>
        <mxCell id="uwWNamnaWRUTzGGO2uTA-9" value="GAMA Landbase Dashboard" style="text;strokeColor=none;fillColor=none;html=1;fontSize=24;fontStyle=1;verticalAlign=middle;align=center;" parent="1" vertex="1">
          <mxGeometry x="10" y="10" width="800" height="40" as="geometry" />
        </mxCell>
      </root>
    </mxGraphModel>
  </diagram>
</mxfile>
